<svg width="25" height="25" viewBox="0 0 25 25" fill="none" xmlns="http://www.w3.org/2000/svg">
<g id="clarity:angle-line">
<path id="Vector" d="M15.6389 4.49996L7.36111 12.5L15.6389 20.5C15.8645 20.7173 16.1672 20.8361 16.4804 20.8302C16.7936 20.8244 17.0917 20.6943 17.309 20.4687C17.5264 20.2431 17.6452 19.9404 17.6393 19.6272C17.6334 19.314 17.5034 19.0159 17.2778 18.7986L10.7569 12.5L17.2778 6.19441C17.5034 5.97708 17.6334 5.67902 17.6393 5.36581C17.6452 5.0526 17.5264 4.74989 17.309 4.52427C17.0917 4.29865 16.7936 4.16861 16.4804 4.16275C16.1672 4.15689 15.8645 4.27569 15.6389 4.49302V4.49996Z" fill="#EFEFEF"/>
</g>
</svg>
