<svg width="33" height="33" viewBox="0 0 33 33" fill="none" xmlns="http://www.w3.org/2000/svg">
<g id="ic:outline-place">
<path id="Vector" d="M16.5 16.5C14.9875 16.5 13.75 15.2625 13.75 13.75C13.75 12.2375 14.9875 11 16.5 11C18.0125 11 19.25 12.2375 19.25 13.75C19.25 15.2625 18.0125 16.5 16.5 16.5ZM24.75 14.025C24.75 9.03375 21.1062 5.5 16.5 5.5C11.8938 5.5 8.25 9.03375 8.25 14.025C8.25 17.2425 10.9312 21.505 16.5 26.5925C22.0688 21.505 24.75 17.2425 24.75 14.025ZM16.5 2.75C22.275 2.75 27.5 7.1775 27.5 14.025C27.5 18.59 23.8288 23.9938 16.5 30.25C9.17125 23.9938 5.5 18.59 5.5 14.025C5.5 7.1775 10.725 2.75 16.5 2.75Z" fill="#EB6E13"/>
</g>
</svg>
