<svg width="36" height="36" viewBox="0 0 36 36" fill="none" xmlns="http://www.w3.org/2000/svg">
<g id="clarity:angle-line">
<path id="Vector" d="M13.48 29.52L25.4 18L13.48 6.48004C13.1551 6.16708 12.7192 5.99601 12.2682 6.00445C11.8172 6.01289 11.388 6.20015 11.075 6.52504C10.762 6.84993 10.591 7.28583 10.5994 7.73686C10.6078 8.18788 10.7951 8.61708 11.12 8.93004L20.51 18L11.12 27.08C10.7951 27.393 10.6078 27.8222 10.5994 28.2732C10.591 28.7242 10.762 29.1601 11.075 29.485C11.3879 29.8099 11.8171 29.9972 12.2682 30.0056C12.7192 30.0141 13.1551 29.843 13.48 29.53L13.48 29.52Z" fill="#EB6E13"/>
</g>
</svg>
